<?xml version="1.0" standalone="no"?>
<!DOCTYPE svg PUBLIC "-//W3C//DTD SVG 1.1//EN"
  "http://www.w3.org/Graphics/SVG/1.1/DTD/svg11.dtd">
<svg width="195.25mm" height="140.99999999999997mm" viewBox="-99 -69.49999999999999 195.25 140.99999999999997" xmlns="http://www.w3.org/2000/svg" version="1.1">
	<title>svgOutput</title>
	<desc>made with tinkercad</desc>
<path d="M 95.25 -67.92076873779295 L 95.25 -64.99999999999999 L 95.25 -39.99999999999999 L 95.2492446899414 -39.99999999999999 L 95.2492446899414 41.99999999999999 L 95.25 41.99999999999999 L 95.25 62.5918731689453 L 95.25 69.92076873779295 L 95.17076873779297 69.99999999999999 L 94.67076873779297 70.49999999999999 L 93.25 70.49999999999999 L 91.75 70.49999999999999 L 66.75 70.49999999999999 L 66.75 70.49924468994139 L -83.75 70.49924468994139 L -93.25 70.49924468994139 L -93.25 68.99999999999999 L -93.25 68.49999999999999 L -93.25 39.74999999999999 L -83.75 39.74999999999999 L -83.75 19.999999999999996 L -93.25 19.999999999999996 L -93.25 0.5 L -98 0.5 L -98 -18.249999999999996 L -93.25 -18.249999999999996 L -88.25 -18.249999999999996 L -88.25 -66.49999999999999 L -88.25 -66.99999999999999 L -88.25 -68.49924468994139 L -83.75 -68.49924468994139 L 66.75 -68.49924468994139 L 66.75 -68.49999999999999 L 68 -68.49999999999999 L 87.34187316894531 -68.49999999999999 L 93.25 -68.49999999999999 L 94.67076873779297 -68.49999999999999 L 94.75 -68.42076873779295 L 95.25 -67.92076873779295 M -83.75 -61.0648956298828 L -83.6636734008789 -60.856567382812486 L -83.25199890136719 -60.31974792480467 L -83.22085571289062 -60.279140472412095 L -83.18025207519531 -60.2480010986328 L -82.6434326171875 -59.836322784423814 L -81.97132110595703 -59.55782318115233 L -81.25299835205078 -59.463527679443345 L -81.25 -59.46313095092772 L -80.52867889404297 -59.55782318115233 L -80.25199890136719 -59.67247009277342 L -79.8565673828125 -59.836322784423814 L -79.31974792480469 -60.2480010986328 L -79.27914428710938 -60.279140472412095 L -79.24800109863281 -60.31974792480467 L -78.8363265991211 -60.856567382812486 L -78.55782318115234 -61.52868270874022 L -78.463134765625 -62.249999999999986 L -78.55782318115234 -62.97131729125975 L -78.8363265991211 -63.643432617187486 L -79.24800109863281 -64.1802520751953 L -79.27914428710938 -64.22085571289061 L -79.31974792480469 -64.25199890136717 L -79.8565673828125 -64.66367340087889 L -80.25199890136719 -64.82752990722655 L -80.52867889404297 -64.94217681884764 L -81.25 -65.0377960205078 L -81.25299835205078 -65.03739929199217 L -81.97132110595703 -64.94217681884764 L -82.6434326171875 -64.66367340087889 L -83.18025207519531 -64.25199890136717 L -83.22085571289062 -64.22085571289061 L -83.25199890136719 -64.1802520751953 L -83.6636734008789 -63.643432617187486 L -83.75 -63.43510437011717 L -83.94217681884766 -62.97131729125975 L -84.03779602050781 -62.249999999999986 L -83.94217681884766 -61.52868270874022 L -83.75 -61.0648956298828 M -69.7509994506836 -44.9000015258789 L -69.63200378417969 -44.841175079345696 L -69.39900207519531 -44.726001739501946 L -69.0270004272461 -44.59999847412109 L -68.64199829101562 -44.522998809814446 L -68.25 -44.498001098632805 L -67.85800170898438 -44.522998809814446 L -67.4729995727539 -44.59999847412109 L -67.10099792480469 -44.726001739501946 L -66.7490005493164 -44.9000015258789 L -66.4219970703125 -45.11800003051757 L -66.12699890136719 -45.37699890136718 L -65.86799621582031 -45.67200088500976 L -65.6500015258789 -45.9990005493164 L -65.53600311279297 -46.229621887207024 L -65.47599792480469 -46.351001739501946 L -65.3499984741211 -46.7229995727539 L -65.27300262451172 -47.10800170898437 L -65.24700164794922 -47.49999999999999 L -65.27300262451172 -47.89199829101562 L -65.3499984741211 -48.27700042724608 L -65.47599792480469 -48.64899826049803 L -65.53600311279297 -48.770378112792955 L -65.6500015258789 -49.00099945068358 L -65.75066375732422 -49.15200042724608 L -65.86799621582031 -49.32799911499022 L -66.12699890136719 -49.6230010986328 L -66.4219970703125 -49.88199996948241 L -66.7490005493164 -50.09999847412108 L -67.10099792480469 -50.27399826049803 L -67.4729995727539 -50.40000152587889 L -67.85800170898438 -50.47700119018553 L -68.25 -50.50299835205077 L -68.64199829101562 -50.47700119018553 L -69.0270004272461 -50.40000152587889 L -69.39900207519531 -50.27399826049803 L -69.63200378417969 -50.15882492065428 L -69.7509994506836 -50.09999847412108 L -70.0780029296875 -49.88199996948241 L -70.37300109863281 -49.6230010986328 L -70.63200378417969 -49.32799911499022 L -70.74933624267578 -49.15200042724608 L -70.8499984741211 -49.00099945068358 L -71.02400207519531 -48.64899826049803 L -71.1500015258789 -48.27700042724608 L -71.22699737548828 -47.89199829101562 L -71.25299835205078 -47.49999999999999 L -71.22699737548828 -47.10800170898437 L -71.1500015258789 -46.7229995727539 L -71.02400207519531 -46.351001739501946 L -70.8499984741211 -45.9990005493164 L -70.63200378417969 -45.67200088500976 L -70.37300109863281 -45.37699890136718 L -70.0780029296875 -45.11800003051757 L -69.7509994506836 -44.9000015258789 M 72.85800170898438 -44.522998809814446 L 73.25 -44.498001098632805 L 73.64199829101562 -44.522998809814446 L 73.72799682617188 -44.54019927978515 L 74.0270004272461 -44.59999847412109 L 74.39900207519531 -44.726001739501946 L 74.7509994506836 -44.9000015258789 L 74.98500061035156 -45.05599975585937 L 75.0780029296875 -45.11800003051757 L 75.37300109863281 -45.37699890136718 L 75.63200378417969 -45.67200088500976 L 75.8499984741211 -45.9990005493164 L 76.02400207519531 -46.351001739501946 L 76.1500015258789 -46.7229995727539 L 76.22699737548828 -47.10800170898437 L 76.25299835205078 -47.49999999999999 L 76.22699737548828 -47.89199829101562 L 76.1500015258789 -48.27700042724608 L 76.02400207519531 -48.64899826049803 L 75.8499984741211 -49.00099945068358 L 75.74933624267578 -49.15200042724608 L 75.63200378417969 -49.32799911499022 L 75.37300109863281 -49.6230010986328 L 75.0780029296875 -49.88199996948241 L 74.7509994506836 -50.09999847412108 L 74.39900207519531 -50.27399826049803 L 74.0270004272461 -50.40000152587889 L 73.72799682617188 -50.45980072021483 L 73.64199829101562 -50.47700119018553 L 73.25 -50.50299835205077 L 72.85800170898438 -50.47700119018553 L 72.4729995727539 -50.40000152587889 L 72.10099792480469 -50.27399826049803 L 71.7490005493164 -50.09999847412108 L 71.4219970703125 -49.88199996948241 L 71.12699890136719 -49.6230010986328 L 70.86799621582031 -49.32799911499022 L 70.75066375732422 -49.15200042724608 L 70.6500015258789 -49.00099945068358 L 70.47599792480469 -48.64899826049803 L 70.3499984741211 -48.27700042724608 L 70.27300262451172 -47.89199829101562 L 70.24800109863281 -47.49999999999999 L 70.27300262451172 -47.10800170898437 L 70.3499984741211 -46.7229995727539 L 70.47599792480469 -46.351001739501946 L 70.6500015258789 -45.9990005493164 L 70.86799621582031 -45.67200088500976 L 71.12699890136719 -45.37699890136718 L 71.4219970703125 -45.11800003051757 L 71.51499938964844 -45.05599975585937 L 71.7490005493164 -44.9000015258789 L 72.10099792480469 -44.726001739501946 L 72.4729995727539 -44.59999847412109 L 72.85800170898438 -44.522998809814446 M 73.72085571289062 -60.279140472412095 L 73.75199890136719 -60.31974792480467 L 74.1636734008789 -60.856567382812486 L 74.44217681884766 -61.52868270874022 L 74.53779602050781 -62.249999999999986 L 74.44217681884766 -62.97131729125975 L 74.1636734008789 -63.643432617187486 L 73.75199890136719 -64.1802520751953 L 73.72085571289062 -64.22085571289061 L 73.68025207519531 -64.25199890136717 L 73.1434326171875 -64.66367340087889 L 72.47132110595703 -64.94217681884764 L 71.75 -65.0377960205078 L 71.02867889404297 -64.94217681884764 L 70.3565673828125 -64.66367340087889 L 70.24800109863281 -64.58042144775389 L 69.81974792480469 -64.25199890136717 L 69.77914428710938 -64.22085571289061 L 69.74800109863281 -64.1802520751953 L 69.3363265991211 -63.643432617187486 L 69.05782318115234 -62.97131729125975 L 68.963134765625 -62.249999999999986 L 69.05782318115234 -61.52868270874022 L 69.3363265991211 -60.856567382812486 L 69.74800109863281 -60.31974792480467 L 69.77914428710938 -60.279140472412095 L 69.81974792480469 -60.2480010986328 L 70.24800109863281 -59.919582366943345 L 70.3565673828125 -59.836322784423814 L 71.02867889404297 -59.55782318115233 L 71.75 -59.46313095092772 L 72.47132110595703 -59.55782318115233 L 73.1434326171875 -59.836322784423814 L 73.68025207519531 -60.2480010986328 L 73.72085571289062 -60.279140472412095 M -1.430252194404602 -60.2480010986328 L -0.893433690071106 -59.836322784423814 L -0.22131776809692383 -59.55782318115233 L 0.5 -59.46313095092772 L 1.2213177680969238 -59.55782318115233 L 1.893433690071106 -59.836322784423814 L 2.4302523136138916 -60.2480010986328 L 2.4708592891693115 -60.279140472412095 L 2.502000093460083 -60.31974792480467 L 2.9136760234832764 -60.856567382812486 L 3.1921770572662354 -61.52868270874022 L 3.2877957820892334 -62.249999999999986 L 3.1921770572662354 -62.97131729125975 L 2.9136760234832764 -63.643432617187486 L 2.502000093460083 -64.1802520751953 L 2.4708592891693115 -64.22085571289061 L 2.4302523136138916 -64.25199890136717 L 1.893433690071106 -64.66367340087889 L 1.2213177680969238 -64.94217681884764 L 0.5 -65.0377960205078 L -0.22131776809692383 -64.94217681884764 L -0.893433690071106 -64.66367340087889 L -1.430252194404602 -64.25199890136717 L -1.4708592891693115 -64.22085571289061 L -1.5019999742507935 -64.1802520751953 L -1.9136759042739868 -63.643432617187486 L -2.1921770572662354 -62.97131729125975 L -2.2877957820892334 -62.249999999999986 L -2.1921770572662354 -61.52868270874022 L -1.9136759042739868 -60.856567382812486 L -1.5019999742507935 -60.31974792480467 L -1.4708592891693115 -60.279140472412095 L -1.430252194404602 -60.2480010986328 M -4.6802520751953125 66.00199890136717 L -4.143433570861816 66.41367340087889 L -3.471317768096924 66.69217681884764 L -2.75 66.7877960205078 L -2.028682231903076 66.69217681884764 L -1.356566309928894 66.41367340087889 L -0.819747805595398 66.00199890136717 L -0.7791407704353333 65.97085571289061 L -0.7480000257492065 65.9302520751953 L -0.3363240659236908 65.39343261718749 L -0.05782298371195793 64.72132110595702 L 0.037795718759298325 63.999999999999986 L -0.05782298371195793 63.27868270874022 L -0.3363240659236908 62.606567382812486 L -0.7480000257492065 62.06974792480467 L -0.7791407704353333 62.029140472412095 L -0.819747805595398 61.9980010986328 L -1.356566309928894 61.586322784423814 L -2.028682231903076 61.30782318115233 L -2.75 61.21313095092772 L -3.471317768096924 61.30782318115233 L -4.143433570861816 61.586322784423814 L -4.6802520751953125 61.9980010986328 L -4.720859050750732 62.029140472412095 L -4.751999855041504 62.06974792480467 L -5.163675785064697 62.606567382812486 L -5.442176818847656 63.27868270874022 L -5.537795543670654 63.999999999999986 L -5.442176818847656 64.72132110595702 L -5.163675785064697 65.39343261718749 L -4.751999855041504 65.9302520751953 L -4.720859050750732 65.97085571289061 L -4.6802520751953125 66.00199890136717 M 69.81974792480469 66.00199890136717 L 70.3565673828125 66.41367340087889 L 71.02867889404297 66.69217681884764 L 71.75 66.7877960205078 L 72.47132110595703 66.69217681884764 L 73.1434326171875 66.41367340087889 L 73.68025207519531 66.00199890136717 L 73.72085571289062 65.97085571289061 L 73.75199890136719 65.9302520751953 L 74.1636734008789 65.39343261718749 L 74.44217681884766 64.72132110595702 L 74.53779602050781 63.999999999999986 L 74.44217681884766 63.27868270874022 L 74.1636734008789 62.606567382812486 L 73.75199890136719 62.06974792480467 L 73.72799682617188 62.038452148437486 L 73.72085571289062 62.029140472412095 L 73.68025207519531 61.9980010986328 L 73.1434326171875 61.586322784423814 L 72.47132110595703 61.30782318115233 L 71.75 61.21313095092772 L 71.02867889404297 61.30782318115233 L 70.3565673828125 61.586322784423814 L 69.81974792480469 61.9980010986328 L 69.77914428710938 62.029140472412095 L 69.74800109863281 62.06974792480467 L 69.3363265991211 62.606567382812486 L 69.05782318115234 63.27868270874022 L 68.963134765625 63.999999999999986 L 69.05782318115234 64.72132110595702 L 69.3363265991211 65.39343261718749 L 69.74800109863281 65.9302520751953 L 69.77914428710938 65.97085571289061 L 69.81974792480469 66.00199890136717 M -80.18025207519531 66.00199890136717 L -79.6434326171875 66.41367340087889 L -78.97132110595703 66.69217681884764 L -78.25 66.7877960205078 L -77.52867889404297 66.69217681884764 L -76.8565673828125 66.41367340087889 L -76.31974792480469 66.00199890136717 L -76.27914428710938 65.97085571289061 L -76.24800109863281 65.9302520751953 L -75.8363265991211 65.39343261718749 L -75.55782318115234 64.72132110595702 L -75.463134765625 63.999999999999986 L -75.55782318115234 63.27868270874022 L -75.8363265991211 62.606567382812486 L -76.24800109863281 62.06974792480467 L -76.27914428710938 62.029140472412095 L -76.31974792480469 61.9980010986328 L -76.8565673828125 61.586322784423814 L -77.52867889404297 61.30782318115233 L -78.25 61.21313095092772 L -78.97132110595703 61.30782318115233 L -79.6434326171875 61.586322784423814 L -80.18025207519531 61.9980010986328 L -80.22085571289062 62.029140472412095 L -80.25199890136719 62.06974792480467 L -80.6636734008789 62.606567382812486 L -80.94217681884766 63.27868270874022 L -81.03779602050781 63.999999999999986 L -80.94217681884766 64.72132110595702 L -80.6636734008789 65.39343261718749 L -80.25199890136719 65.9302520751953 L -80.22085571289062 65.97085571289061 L -80.18025207519531 66.00199890136717 z" fill="none" stroke="rgb(255,0,0)" stroke-width="0.001mm" />
</svg>