<?xml version="1.0" standalone="no"?>
<!DOCTYPE svg PUBLIC "-//W3C//DTD SVG 1.1//EN"
  "http://www.w3.org/Graphics/SVG/1.1/DTD/svg11.dtd">
<svg width="190.5mm" height="140.99999999999997mm" viewBox="-94.25 -69.49999999999999 190.5 140.99999999999997" xmlns="http://www.w3.org/2000/svg" version="1.1">
	<title>svgOutput</title>
	<desc>made with tinkercad</desc>
<path d="M 95.25 -67.92076873779295 L 95.25 -64.99999999999999 L 95.25 -39.99999999999999 L 95.2492446899414 -39.99999999999999 L 95.2492446899414 41.99999999999999 L 95.25 41.99999999999999 L 95.25 68.99999999999999 L 95.25 69.92076873779295 L 94.67076873779297 70.49999999999999 L 93.25 70.49999999999999 L 91.75 70.49999999999999 L 67.75 70.49999999999999 L 66.75 70.49999999999999 L 66.75 70.49924468994139 L -88.25 70.49924468994139 L -88.25 68.49999999999999 L -88.25 59.499999999999986 L -84.25299835205078 59.499999999999986 L -83.25199890136719 59.499999999999986 L -79.24800109863281 59.499999999999986 L -66.29554748535156 59.499999999999986 L -62.56822967529297 59.499999999999986 L -24.387210845947266 59.499999999999986 L -2.503000020980835 59.499999999999986 L -1.5019999742507935 59.499999999999986 L 2.502000093460083 59.499999999999986 L 15.454451560974121 59.499999999999986 L 19.181772232055664 59.499999999999986 L 57.362789154052734 59.499999999999986 L 68.74800109863281 59.499999999999986 L 69.74800109863281 59.499999999999986 L 73.75199890136719 59.499999999999986 L 83.25 59.499999999999986 L 83.29366302490234 59.499999999999986 L 83.38099670410156 59.49399948120116 L 83.50900268554688 59.46799850463866 L 83.63400268554688 59.425998687744126 L 83.70258331298828 59.39199829101561 L 83.7509994506836 59.368000030517564 L 83.86000061035156 59.2949981689453 L 83.95899963378906 59.20899963378905 L 83.96800231933594 59.19863891601561 L 84.04499816894531 59.11000061035155 L 84.11799621582031 59.00099945068358 L 84.1760025024414 58.883998870849595 L 84.21800231933594 58.758998870849595 L 84.24400329589844 58.631000518798814 L 84.25 58.543666839599595 L 84.25 58.499999999999986 L 84.25 -56.499999999999986 L 84.25 -56.543666839599595 L 84.24400329589844 -56.631000518798814 L 84.21800231933594 -56.758998870849595 L 84.1760025024414 -56.883998870849595 L 84.11799621582031 -57.00099945068358 L 84.04499816894531 -57.11000061035155 L 83.96800231933594 -57.19863891601561 L 83.95899963378906 -57.20899963378905 L 83.86000061035156 -57.2949981689453 L 83.78683471679688 -57.34400177001952 L 83.7509994506836 -57.368000030517564 L 83.63400268554688 -57.425998687744126 L 83.50900268554688 -57.46799850463866 L 83.38099670410156 -57.49399948120116 L 83.29366302490234 -57.499999999999986 L 83.25 -57.499999999999986 L 68.74800109863281 -57.499999999999986 L -5.752999782562256 -57.499999999999986 L -81.25299835205078 -57.499999999999986 L -88.25 -57.499999999999986 L -93.25 -57.499999999999986 L -93.25 -66.49999999999999 L -93.25 -68.49924468994139 L -88.25 -68.49924468994139 L 66.75 -68.49924468994139 L 66.75 -68.49999999999999 L 84.25 -68.49999999999999 L 93.25 -68.49999999999999 L 93.75 -68.49999999999999 L 94.67076873779297 -68.49999999999999 L 95.25 -67.92076873779295 M 72.47132110595703 -64.69217681884764 L 71.75 -64.7877960205078 L 71.02867889404297 -64.69217681884764 L 70.3565673828125 -64.41367340087889 L 69.81974792480469 -64.00199890136717 L 69.77914428710938 -63.970859527587876 L 69.74800109863281 -63.9302520751953 L 69.3363265991211 -63.393432617187486 L 69.05782318115234 -62.72131729125975 L 68.963134765625 -61.999999999999986 L 69.05782318115234 -61.27868270874022 L 69.3363265991211 -60.606567382812486 L 69.74800109863281 -60.06974792480467 L 69.77914428710938 -60.029140472412095 L 69.81974792480469 -59.9980010986328 L 70.3565673828125 -59.586322784423814 L 71.02867889404297 -59.30782318115233 L 71.75 -59.21313095092772 L 72.47132110595703 -59.30782318115233 L 73.1434326171875 -59.586322784423814 L 73.68025207519531 -59.9980010986328 L 73.72085571289062 -60.029140472412095 L 73.75199890136719 -60.06974792480467 L 74.1636734008789 -60.606567382812486 L 74.44217681884766 -61.27868270874022 L 74.53779602050781 -61.999999999999986 L 74.44217681884766 -62.72131729125975 L 74.1636734008789 -63.393432617187486 L 73.75199890136719 -63.9302520751953 L 73.72085571289062 -63.970859527587876 L 73.68025207519531 -64.00199890136717 L 73.1434326171875 -64.41367340087889 L 72.47132110595703 -64.69217681884764 M -2.028682231903076 -64.69217681884764 L -2.75 -64.7877960205078 L -3.471317768096924 -64.69217681884764 L -4.143433570861816 -64.41367340087889 L -4.6802520751953125 -64.00199890136717 L -4.720859050750732 -63.970859527587876 L -4.751999855041504 -63.9302520751953 L -5.163675785064697 -63.393432617187486 L -5.442176818847656 -62.72131729125975 L -5.537795543670654 -61.999999999999986 L -5.442176818847656 -61.27868270874022 L -5.163675785064697 -60.606567382812486 L -4.751999855041504 -60.06974792480467 L -4.720859050750732 -60.029140472412095 L -4.6802520751953125 -59.9980010986328 L -4.143433570861816 -59.586322784423814 L -3.471317768096924 -59.30782318115233 L -2.75 -59.21313095092772 L -2.028682231903076 -59.30782318115233 L -1.356566309928894 -59.586322784423814 L -0.819747805595398 -59.9980010986328 L -0.7791407704353333 -60.029140472412095 L -0.7480000257492065 -60.06974792480467 L -0.3363240659236908 -60.606567382812486 L -0.05782298371195793 -61.27868270874022 L 0.036867380142211914 -61.999999999999986 L -0.05782298371195793 -62.72131729125975 L -0.3363240659236908 -63.393432617187486 L -0.7480000257492065 -63.9302520751953 L -0.7791407704353333 -63.970859527587876 L -0.819747805595398 -64.00199890136717 L -1.356566309928894 -64.41367340087889 L -2.028682231903076 -64.69217681884764 M -77.52867889404297 -64.69217681884764 L -78.25 -64.7877960205078 L -78.97132110595703 -64.69217681884764 L -79.6434326171875 -64.41367340087889 L -80.18025207519531 -64.00199890136717 L -80.22085571289062 -63.970859527587876 L -80.25199890136719 -63.9302520751953 L -80.6636734008789 -63.393432617187486 L -80.94217681884766 -62.72131729125975 L -81.03779602050781 -61.999999999999986 L -80.94217681884766 -61.27868270874022 L -80.6636734008789 -60.606567382812486 L -80.25199890136719 -60.06974792480467 L -80.22085571289062 -60.029140472412095 L -80.18025207519531 -59.9980010986328 L -79.6434326171875 -59.586322784423814 L -78.97132110595703 -59.30782318115233 L -78.25 -59.21313095092772 L -77.52867889404297 -59.30782318115233 L -76.8565673828125 -59.586322784423814 L -76.31974792480469 -59.9980010986328 L -76.27914428710938 -60.029140472412095 L -76.24800109863281 -60.06974792480467 L -75.8363265991211 -60.606567382812486 L -75.55782318115234 -61.27868270874022 L -75.463134765625 -61.999999999999986 L -75.55782318115234 -62.72131729125975 L -75.8363265991211 -63.393432617187486 L -76.24800109863281 -63.9302520751953 L -76.27914428710938 -63.970859527587876 L -76.31974792480469 -64.00199890136717 L -76.8565673828125 -64.41367340087889 L -77.52867889404297 -64.69217681884764 M 72.47132110595703 61.55782318115233 L 71.75 61.46313095092772 L 71.02867889404297 61.55782318115233 L 70.3565673828125 61.836322784423814 L 69.81974792480469 62.2480010986328 L 69.77914428710938 62.279140472412095 L 69.74800109863281 62.31974792480467 L 69.3363265991211 62.856567382812486 L 69.05782318115234 63.52868270874022 L 68.963134765625 64.24999999999999 L 69.05782318115234 64.97132110595702 L 69.3363265991211 65.64343261718749 L 69.74800109863281 66.1802520751953 L 69.77914428710938 66.22085571289061 L 69.81974792480469 66.25199890136717 L 70.3565673828125 66.66367340087889 L 71.02867889404297 66.94217681884764 L 71.75 67.0377960205078 L 72.47132110595703 66.94217681884764 L 73.1434326171875 66.66367340087889 L 73.68025207519531 66.25199890136717 L 73.72085571289062 66.22085571289061 L 73.75199890136719 66.1802520751953 L 74.1636734008789 65.64343261718749 L 74.44217681884766 64.97132110595702 L 74.53779602050781 64.24999999999999 L 74.44217681884766 63.52868270874022 L 74.1636734008789 62.856567382812486 L 73.75199890136719 62.31974792480467 L 73.72085571289062 62.279140472412095 L 73.68025207519531 62.2480010986328 L 73.1434326171875 61.836322784423814 L 72.47132110595703 61.55782318115233 M 1.2213177680969238 61.55782318115233 L 0.5 61.46313095092772 L -0.22131776809692383 61.55782318115233 L -0.893433690071106 61.836322784423814 L -1.430252194404602 62.2480010986328 L -1.4708592891693115 62.279140472412095 L -1.5019999742507935 62.31974792480467 L -1.9136759042739868 62.856567382812486 L -2.1921770572662354 63.52868270874022 L -2.2877957820892334 64.24999999999999 L -2.1921770572662354 64.97132110595702 L -1.9136759042739868 65.64343261718749 L -1.5019999742507935 66.1802520751953 L -1.4708592891693115 66.22085571289061 L -1.430252194404602 66.25199890136717 L -0.893433690071106 66.66367340087889 L -0.22131776809692383 66.94217681884764 L 0.5 67.0377960205078 L 1.2213177680969238 66.94217681884764 L 1.893433690071106 66.66367340087889 L 2.4302523136138916 66.25199890136717 L 2.4708592891693115 66.22085571289061 L 2.502000093460083 66.1802520751953 L 2.9136760234832764 65.64343261718749 L 3.1921770572662354 64.97132110595702 L 3.286867380142212 64.24999999999999 L 3.1921770572662354 63.52868270874022 L 2.9136760234832764 62.856567382812486 L 2.502000093460083 62.31974792480467 L 2.4708592891693115 62.279140472412095 L 2.4302523136138916 62.2480010986328 L 1.893433690071106 61.836322784423814 L 1.2213177680969238 61.55782318115233 M -80.52867889404297 61.55782318115233 L -81.25 61.46313095092772 L -81.97132110595703 61.55782318115233 L -82.6434326171875 61.836322784423814 L -83.18025207519531 62.2480010986328 L -83.22085571289062 62.279140472412095 L -83.25199890136719 62.31974792480467 L -83.6636734008789 62.856567382812486 L -83.94217681884766 63.52868270874022 L -84.03779602050781 64.24999999999999 L -83.94217681884766 64.97132110595702 L -83.6636734008789 65.64343261718749 L -83.25199890136719 66.1802520751953 L -83.22085571289062 66.22085571289061 L -83.18025207519531 66.25199890136717 L -82.6434326171875 66.66367340087889 L -81.97132110595703 66.94217681884764 L -81.25 67.0377960205078 L -80.52867889404297 66.94217681884764 L -79.8565673828125 66.66367340087889 L -79.31974792480469 66.25199890136717 L -79.27914428710938 66.22085571289061 L -79.24800109863281 66.1802520751953 L -78.8363265991211 65.64343261718749 L -78.55782318115234 64.97132110595702 L -78.463134765625 64.24999999999999 L -78.55782318115234 63.52868270874022 L -78.8363265991211 62.856567382812486 L -79.24800109863281 62.31974792480467 L -79.27914428710938 62.279140472412095 L -79.31974792480469 62.2480010986328 L -79.8565673828125 61.836322784423814 L -80.52867889404297 61.55782318115233 z" fill="none" stroke="rgb(255,0,0)" stroke-width="0.001mm" />
</svg>