<?xml version="1.0" standalone="no"?>
<!DOCTYPE svg PUBLIC "-//W3C//DTD SVG 1.1//EN"
  "http://www.w3.org/Graphics/SVG/1.1/DTD/svg11.dtd">
<svg width="194.49700164794922mm" height="140.99924468994138mm" viewBox="-96.5 -252.49999999999994 194.49700164794922 140.99924468994138" xmlns="http://www.w3.org/2000/svg" version="1.1">
	<title>svgOutput</title>
	<desc>made with tinkercad</desc>
<path d="M -95.5 -113.079231262207 L -95.5 -115.99999999999997 L -95.5 -139.49999999999997 L -95.5 -140.99999999999997 L -95.4992446899414 -140.99999999999997 L -95.4992446899414 -222.99999999999994 L -95.5 -222.99999999999994 L -95.5 -224.49999999999994 L -95.5 -249.99999999999994 L -95.5 -250.92077636718744 L -94.92076873779297 -251.49999999999994 L -92 -251.49999999999994 L -74.50299835205078 -251.49999999999994 L -72.81072998046875 -251.49999999999994 L -71.09870910644531 -251.49999999999994 L -69.5335922241211 -251.49999999999994 L -67.89266967773438 -251.49999999999994 L -67 -251.49999999999994 L 77.5 -251.49999999999994 L 92.5 -251.49999999999994 L 92.5 -249.49999999999994 L 92.5 -247.99999999999994 L 92.49700164794922 -247.99999999999994 L 92.49700164794922 -246.94187927246088 L 92.49700164794922 -245.05465698242182 L 92.49700164794922 -243.34884643554682 L 92.49700164794922 -243.24800109863276 L 92.49700164794922 -242.24800109863276 L 92.49700164794922 -224.49999999999994 L 92.49700164794922 -201.25199890136713 L 82.74700164794922 -201.25199890136713 L 82.74700164794922 -181.49800109863278 L 87.49700164794922 -181.49800109863278 L 87.49700164794922 -161.99800109863278 L 92.49700164794922 -161.99800109863278 L 96.99700164794922 -161.99800109863278 L 96.99700164794922 -143.75300598144528 L 92.49700164794922 -143.75300598144528 L 87.49700164794922 -143.75300598144528 L 87.49700164794922 -139.49999999999997 L 87.49700164794922 -115.99999999999997 L 87.5 -115.99999999999997 L 87.5 -115.99800109863278 L 87.5 -112.50075531005857 L 69.74800109863281 -112.50075531005857 L -2.753000020980835 -112.50075531005857 L -69.5 -112.50075531005857 L -74.50299835205078 -112.50075531005857 L -94 -112.50075531005857 L -94.92152404785156 -112.50075531005857 L -95.5 -113.079231262207 M -72.22132110595703 -116.30782318115232 L -71.5 -116.21313476562497 L -70.77867889404297 -116.30782318115232 L -70.1065673828125 -116.58632659912107 L -69.56974792480469 -116.99800109863278 L -69.52914428710938 -117.02914428710935 L -69.5 -117.06713867187497 L -69.0863265991211 -117.60656738281247 L -68.80782318115234 -118.27867889404294 L -68.713134765625 -118.99999999999997 L -68.80782318115234 -119.721321105957 L -69.0863265991211 -120.39343261718747 L -69.5 -120.93286132812497 L -69.52914428710938 -120.9708557128906 L -69.56974792480469 -121.00199890136716 L -70.1065673828125 -121.41367340087888 L -70.77867889404297 -121.69217681884763 L -71.5 -121.78779602050778 L -72.22132110595703 -121.69217681884763 L -72.8934326171875 -121.41367340087888 L -73.43025207519531 -121.00199890136716 L -73.47085571289062 -120.9708557128906 L -73.50199890136719 -120.93025207519528 L -73.9136734008789 -120.39343261718747 L -74.19217681884766 -119.721321105957 L -74.28779602050781 -118.99999999999997 L -74.19217681884766 -118.27867889404294 L -73.9136734008789 -117.60656738281247 L -73.50199890136719 -117.06974792480466 L -73.47085571289062 -117.02914428710935 L -73.43025207519531 -116.99800109863278 L -72.8934326171875 -116.58632659912107 L -72.22132110595703 -116.30782318115232 M 72.02867889404297 -116.30782318115232 L 72.75 -116.21313476562497 L 73.47132110595703 -116.30782318115232 L 74.1434326171875 -116.58632659912107 L 74.68025207519531 -116.99800109863278 L 74.72085571289062 -117.02914428710935 L 74.75199890136719 -117.06974792480466 L 75.1636734008789 -117.60656738281247 L 75.44217681884766 -118.27867889404294 L 75.53779602050781 -118.99999999999997 L 75.44217681884766 -119.721321105957 L 75.1636734008789 -120.39343261718747 L 74.75199890136719 -120.93025207519528 L 74.72085571289062 -120.9708557128906 L 74.68025207519531 -121.00199890136716 L 74.1434326171875 -121.41367340087888 L 73.47132110595703 -121.69217681884763 L 72.75 -121.78779602050778 L 72.02867889404297 -121.69217681884763 L 71.3565673828125 -121.41367340087888 L 70.81974792480469 -121.00199890136716 L 70.77914428710938 -120.9708557128906 L 70.74800109863281 -120.93025207519528 L 70.3363265991211 -120.39343261718747 L 70.05782318115234 -119.721321105957 L 69.963134765625 -118.99999999999997 L 70.05782318115234 -118.27867889404294 L 70.3363265991211 -117.60656738281247 L 70.74800109863281 -117.06974792480466 L 70.77914428710938 -117.02914428710935 L 70.81974792480469 -116.99800109863278 L 71.3565673828125 -116.58632659912107 L 72.02867889404297 -116.30782318115232 M -0.47131776809692383 -116.30782318115232 L 0.25 -116.21313476562497 L 0.9713177680969238 -116.30782318115232 L 1.643433690071106 -116.58632659912107 L 2.1802523136138916 -116.99800109863278 L 2.2208592891693115 -117.02914428710935 L 2.252000093460083 -117.06974792480466 L 2.6636760234832764 -117.60656738281247 L 2.9421770572662354 -118.27867889404294 L 3.0377957820892334 -118.99999999999997 L 2.9421770572662354 -119.721321105957 L 2.6636760234832764 -120.39343261718747 L 2.252000093460083 -120.93025207519528 L 2.2208592891693115 -120.9708557128906 L 2.1802523136138916 -121.00199890136716 L 1.643433690071106 -121.41367340087888 L 0.9713177680969238 -121.69217681884763 L 0.25 -121.78779602050778 L -0.47131776809692383 -121.69217681884763 L -1.143433690071106 -121.41367340087888 L -1.680252194404602 -121.00199890136716 L -1.7208592891693115 -120.9708557128906 L -1.7519999742507935 -120.93025207519528 L -2.1636760234832764 -120.39343261718747 L -2.4421770572662354 -119.721321105957 L -2.5377957820892334 -118.99999999999997 L -2.4421770572662354 -118.27867889404294 L -2.1636760234832764 -117.60656738281247 L -1.7519999742507935 -117.06974792480466 L -1.7208592891693115 -117.02914428710935 L -1.680252194404602 -116.99800109863278 L -1.143433690071106 -116.58632659912107 L -0.47131776809692383 -116.30782318115232 M 70.5719985961914 -227.64399719238276 L 71.5 -227.49800109863276 L 72.4280014038086 -227.64399719238276 L 73.26499938964844 -228.07099914550776 L 73.92900085449219 -228.7350006103515 L 74.25601196289062 -229.37600708007807 L 74.35600280761719 -229.57200622558588 L 74.50299835205078 -230.49999999999994 L 74.35600280761719 -231.427993774414 L 73.92900085449219 -232.26499938964838 L 73.26499938964844 -232.92900085449213 L 72.4280014038086 -233.35600280761713 L 71.5 -233.50300598144526 L 70.5719985961914 -233.35600280761713 L 69.73500061035156 -232.92900085449213 L 69.07099914550781 -232.26499938964838 L 68.64399719238281 -231.427993774414 L 68.49800109863281 -230.49999999999994 L 68.64399719238281 -229.57200622558588 L 68.74398803710938 -229.37600708007807 L 69.07099914550781 -228.7350006103515 L 69.73500061035156 -228.07099914550776 L 70.5719985961914 -227.64399719238276 M 1.7786822319030762 -242.55781555175776 L 2.5 -242.46313476562494 L 3.221317768096924 -242.55781555175776 L 3.8934338092803955 -242.8363189697265 L 4.4302520751953125 -243.24800109863276 L 4.470859050750732 -243.27914428710932 L 4.501999855041504 -243.31974792480463 L 4.913675785064697 -243.85656738281244 L 5.192176818847656 -244.52868652343744 L 5.287795543670654 -245.24999999999994 L 5.192176818847656 -245.97131347656244 L 4.913675785064697 -246.64343261718744 L 4.501999855041504 -247.18025207519526 L 4.470859050750732 -247.22085571289057 L 4.4302520751953125 -247.25199890136713 L 3.8934338092803955 -247.66368103027338 L 3.221317768096924 -247.94218444824213 L 2.5 -248.03779602050776 L 1.7786822319030762 -247.94218444824213 L 1.106566309928894 -247.66368103027338 L 0.569747805595398 -247.25199890136713 L 0.5291407704353333 -247.22085571289057 L 0.49799999594688416 -247.18025207519526 L 0.0863240510225296 -246.64343261718744 L -0.19217701256275177 -245.97131347656244 L -0.2877957224845886 -245.24999999999994 L -0.19217701256275177 -244.52868652343744 L 0.0863240510225296 -243.85656738281244 L 0.49799999594688416 -243.31974792480463 L 0.5291407704353333 -243.27914428710932 L 0.569747805595398 -243.24800109863276 L 1.106566309928894 -242.8363189697265 L 1.7786822319030762 -242.55781555175776 M 85.02867889404297 -242.55781555175776 L 85.75 -242.46313476562494 L 86.47132110595703 -242.55781555175776 L 87.1434326171875 -242.8363189697265 L 87.68025207519531 -243.24800109863276 L 87.72085571289062 -243.27914428710932 L 87.75199890136719 -243.31974792480463 L 88.1636734008789 -243.85656738281244 L 88.44217681884766 -244.52868652343744 L 88.53779602050781 -245.24999999999994 L 88.44217681884766 -245.97131347656244 L 88.1636734008789 -246.64343261718744 L 87.75199890136719 -247.18025207519526 L 87.72085571289062 -247.22085571289057 L 87.68025207519531 -247.25199890136713 L 87.1434326171875 -247.66368103027338 L 86.47132110595703 -247.94218444824213 L 85.75 -248.03779602050776 L 85.02867889404297 -247.94218444824213 L 84.3565673828125 -247.66368103027338 L 83.81974792480469 -247.25199890136713 L 83.77914428710938 -247.22085571289057 L 83.74800109863281 -247.18025207519526 L 83.3363265991211 -246.64343261718744 L 83.05782318115234 -245.97131347656244 L 82.963134765625 -245.24999999999994 L 83.05782318115234 -244.52868652343744 L 83.3363265991211 -243.85656738281244 L 83.74800109863281 -243.31974792480463 L 83.77914428710938 -243.27914428710932 L 83.81974792480469 -243.24800109863276 L 84.3565673828125 -242.8363189697265 L 85.02867889404297 -242.55781555175776 M -72.22132110595703 -242.55781555175776 L -71.5 -242.46313476562494 L -70.77867889404297 -242.55781555175776 L -70.1065673828125 -242.8363189697265 L -69.56974792480469 -243.24800109863276 L -69.52914428710938 -243.27914428710932 L -69.49800109863281 -243.31974792480463 L -69.0863265991211 -243.85656738281244 L -68.80782318115234 -244.52868652343744 L -68.713134765625 -245.24999999999994 L -68.80782318115234 -245.97131347656244 L -69.0863265991211 -246.64343261718744 L -69.49800109863281 -247.18025207519526 L -69.52914428710938 -247.22085571289057 L -69.56974792480469 -247.25199890136713 L -70.1065673828125 -247.66368103027338 L -70.77867889404297 -247.94218444824213 L -71.21488189697266 -247.99999999999994 L -71.5 -248.03779602050776 L -71.78511810302734 -247.99999999999994 L -72.22132110595703 -247.94218444824213 L -72.8934326171875 -247.66368103027338 L -73.43025207519531 -247.25199890136713 L -73.47085571289062 -247.22085571289057 L -73.50199890136719 -247.18025207519526 L -73.9136734008789 -246.64343261718744 L -74.19217681884766 -245.97131347656244 L -74.28779602050781 -245.24999999999994 L -74.19217681884766 -244.52868652343744 L -73.9136734008789 -243.85656738281244 L -73.50199890136719 -243.31974792480463 L -73.47085571289062 -243.27914428710932 L -73.43025207519531 -243.24800109863276 L -72.8934326171875 -242.8363189697265 L -72.22132110595703 -242.55781555175776 M -73.4280014038086 -227.64399719238276 L -72.5 -227.49800109863276 L -71.5719985961914 -227.64399719238276 L -70.73500061035156 -228.07099914550776 L -70.07099914550781 -228.7350006103515 L -69.74398803710938 -229.37600708007807 L -69.64399719238281 -229.57200622558588 L -69.49800109863281 -230.49999999999994 L -69.64399719238281 -231.427993774414 L -70.07099914550781 -232.26499938964838 L -70.73500061035156 -232.92900085449213 L -71.5719985961914 -233.35600280761713 L -72.5 -233.50300598144526 L -73.4280014038086 -233.35600280761713 L -74.26499938964844 -232.92900085449213 L -74.50299835205078 -232.69099426269526 L -74.92900085449219 -232.26499938964838 L -75.35600280761719 -231.427993774414 L -75.50299835205078 -230.49999999999994 L -75.35600280761719 -229.57200622558588 L -75.25601196289062 -229.37600708007807 L -74.92900085449219 -228.7350006103515 L -74.50299835205078 -228.30900573730463 L -74.26499938964844 -228.07099914550776 L -73.4280014038086 -227.64399719238276 z" fill="none" stroke="rgb(255,0,0)" stroke-width="0.001mm" />
</svg>