<?xml version="1.0" standalone="no"?>
<!DOCTYPE svg PUBLIC "-//W3C//DTD SVG 1.1//EN"
  "http://www.w3.org/Graphics/SVG/1.1/DTD/svg11.dtd">
<svg width="190mm" height="140.99924850463864mm" viewBox="-96.5 -61.99924850463866 190 140.99924850463864" xmlns="http://www.w3.org/2000/svg" version="1.1">
	<title>svgOutput</title>
	<desc>made with tinkercad</desc>
<path d="M -67 77.99999999999999 L -69.5 77.99999999999999 L -87.59187316894531 77.99999999999999 L -92.25299835205078 77.99999999999999 L -94.92076873779297 77.99999999999999 L -95 77.92076873779295 L -95.5 77.42076873779295 L -95.5 74.49999999999999 L -95.5 52.499999999999986 L -95.5 49.499999999999986 L -95.4992446899414 49.499999999999986 L -95.4992446899414 -32.49999999999999 L -95.5 -32.49999999999999 L -95.5 -34.49999999999999 L -95.5 -48.999999999999986 L -95.5 -50.999999999999986 L -95.5 -53.0918731689453 L -95.5 -57.75299835205077 L -95.5 -60.42077255249022 L -95.42076873779297 -60.499999999999986 L -94.92152404785156 -60.99924850463866 L -93.5 -60.99924850463866 L -92 -60.99924850463866 L -68.5 -60.99924850463866 L -41 -60.99924850463866 L 87.5 -60.99924850463866 L 87.5 -59.499999999999986 L 87.5 -58.999999999999986 L 87.5 -57.734943389892564 L 87.5 -53.756530761718736 L 87.5 -52.4980010986328 L 87.5 -51.4980010986328 L 87.5 -50.999999999999986 L 87.5 -49.999999999999986 L -40 -49.999999999999986 L -40.04366683959961 -49.999999999999986 L -40.13100051879883 -49.99399948120116 L -40.25899887084961 -49.96799850463866 L -40.38399887084961 -49.925998687744126 L -40.500999450683594 -49.868000030517564 L -40.61000061035156 -49.7949981689453 L -40.70899963378906 -49.70899963378905 L -40.79499816894531 -49.61000061035155 L -40.86800003051758 -49.50099945068358 L -40.92599868774414 -49.383998870849595 L -40.959999084472656 -49.282810211181626 L -40.96799850463867 -49.258998870849595 L -40.9897346496582 -49.15200042724608 L -40.99399948120117 -49.131000518798814 L -41 -49.043666839599595 L -41 -48.999999999999986 L -41 -34.49999999999999 L -41 52.499999999999986 L -41 65.99999999999999 L -41 66.04366302490233 L -40.99399948120117 66.13099670410155 L -40.96799850463867 66.25900268554686 L -40.959999084472656 66.28280639648436 L -40.92599868774414 66.38400268554686 L -40.86800003051758 66.50099945068358 L -40.79499816894531 66.61000061035155 L -40.70899963378906 66.70899963378905 L -40.61000061035156 66.7949981689453 L -40.500999450683594 66.8679962158203 L -40.38399887084961 66.92600250244139 L -40.25899887084961 66.96800231933592 L -40.13100051879883 66.99400329589842 L -40.04366683959961 66.99999999999999 L -40 66.99999999999999 L -0.5 66.99999999999999 L 0.5009999871253967 66.99999999999999 L 4.505000114440918 66.99999999999999 L 18.27632713317871 66.99999999999999 L 20.906335830688477 66.99999999999999 L 58.55459213256836 66.99999999999999 L 82.75 66.99999999999999 L 83.7509994506836 66.99999999999999 L 87.75499725341797 66.99999999999999 L 92.5 66.99999999999999 L 92.5 68.18492126464842 L 92.5 69.92380523681639 L 92.5 71.82997131347655 L 92.5 73.53587341308592 L 92.5 73.75199890136717 L 92.5 74.49999999999999 L 92.5 74.75299835205077 L 92.5 76.49999999999999 L 92.5 77.99924468994139 L 80.00499725341797 77.99924468994139 L 68.0009994506836 77.99924468994139 L -36.994998931884766 77.99924468994139 L -48.999000549316406 77.99924468994139 L -67 77.99924468994139 L -67 77.99999999999999 M -83.50299835205078 -50.002799987792955 L -83.63400268554688 -49.99399948120116 L -83.76499938964844 -49.966999053955064 L -83.89199829101562 -49.923000335693345 L -83.96800231933594 -49.88404083251952 L -84.01100158691406 -49.861999511718736 L -84.12200164794922 -49.78699874877928 L -84.22100067138672 -49.69699859619139 L -84.30799865722656 -49.59400177001952 L -84.37999725341797 -49.48099899291991 L -84.43599700927734 -49.36000061035155 L -84.47599792480469 -49.2319984436035 L -84.4892349243164 -49.15200042724608 L -84.49800109863281 -49.098999023437486 L -84.50157928466797 -49.00299835205077 L -84.50299835205078 -49.00299835205077 L -84.50299835205078 -48.999999999999986 L -84.50299835205078 -34.49999999999999 L -84.50299835205078 46.00199890136718 L -84.50177001953125 46.00199890136718 L -84.50299835205078 46.0349998474121 L -84.49826049804688 46.08000183105468 L -84.48899841308594 46.16799926757812 L -84.45800018310547 46.29800033569335 L -84.41000366210938 46.423999786376946 L -84.34500122070312 46.54100036621093 L -84.26599884033203 46.64899826049804 L -84.1729965209961 46.74499893188476 L -84.06800079345703 46.82899856567382 L -83.96800231933594 46.88761901855468 L -83.9520034790039 46.89699935913085 L -83.8290023803711 46.94900131225585 L -83.69999694824219 46.985000610351555 L -83.56700134277344 47.002998352050774 L -83.50299835205078 47.002998352050774 L -77.50299835205078 47.002998352050774 L -73.49800109863281 47.002998352050774 L -45.49800109863281 47.002998352050774 L -45.43299865722656 47.002998352050774 L -45.29999923706055 46.985000610351555 L -45.17100143432617 46.94900131225585 L -45.055999755859375 46.90038299560546 L -45.04800033569336 46.89699935913085 L -44.93199920654297 46.82899856567382 L -44.82699966430664 46.74499893188476 L -44.73400115966797 46.64899826049804 L -44.654998779296875 46.54100036621093 L -44.59000015258789 46.423999786376946 L -44.54199981689453 46.29800033569335 L -44.51100158691406 46.16799926757812 L -44.50239944458008 46.08000183105468 L -44.49800109863281 46.0349998474121 L -44.498985290527344 46.00199890136718 L -44.49800109863281 46.00199890136718 L -44.49800109863281 -34.49999999999999 L -44.49800109863281 -48.999999999999986 L -44.49800109863281 -49.00299835205077 L -44.4991340637207 -49.00299835205077 L -44.50199890136719 -49.098999023437486 L -44.510765075683594 -49.15200042724608 L -44.52399826049805 -49.2319984436035 L -44.56399917602539 -49.36000061035155 L -44.619998931884766 -49.48099899291991 L -44.69200134277344 -49.59400177001952 L -44.77899932861328 -49.69699859619139 L -44.87799835205078 -49.78699874877928 L -44.98899841308594 -49.861999511718736 L -45.055999755859375 -49.89634323120116 L -45.108001708984375 -49.923000335693345 L -45.23500061035156 -49.966999053955064 L -45.36600112915039 -49.99399948120116 L -45.49800109863281 -50.00286483764647 L -45.49800109863281 -50.00299835205077 L -83.50299835205078 -50.00299835205077 L -83.50299835205078 -50.002799987792955 M -73.28339385986328 73.72799682617186 L -73.2520980834961 73.75199890136717 L -72.83668518066406 74.07057189941405 L -72.19049835205078 74.3383331298828 L -71.49700164794922 74.43025970458983 L -70.80350494384766 74.3383331298828 L -70.15731811523438 74.07057189941405 L -69.74189758300781 73.75199890136717 L -69.71060180664062 73.72799682617186 L -69.63200378417969 73.66771697998045 L -69.60216522216797 73.64483642578124 L -69.5 73.51161956787108 L -69.49500274658203 73.50509643554686 L -69.17642974853516 73.08968353271483 L -68.9086685180664 72.44349670410155 L -68.817626953125 71.74999999999999 L -68.9086685180664 71.05650329589842 L -69.17642974853516 70.41031646728514 L -69.49500274658203 69.99490356445311 L -69.5 69.98838043212889 L -69.60216522216797 69.85516357421874 L -69.63200378417969 69.83228302001952 L -69.74189758300781 69.7480010986328 L -70.15731811523438 69.42942810058592 L -70.80350494384766 69.16166687011717 L -71.49700164794922 69.0706329345703 L -72.19049835205078 69.16166687011717 L -72.83668518066406 69.42942810058592 L -73.2520980834961 69.7480010986328 L -73.39183807373047 69.85516357421874 L -73.4990005493164 69.99490356445311 L -73.81757354736328 70.41031646728514 L -74.08533477783203 71.05650329589842 L -74.17726135253906 71.74999999999999 L -74.08533477783203 72.44349670410155 L -73.81757354736328 73.08968353271483 L -73.4990005493164 73.50509643554686 L -73.39183807373047 73.64483642578124 L -73.28339385986328 73.72799682617186 M -73.4990005493164 62.07926940917967 L -73.49800109863281 62.06900024414061 L -73.4990005493164 62.03562545776366 L -73.50599670410156 61.80199813842772 L -73.5510025024414 61.537998199462876 L -73.58124542236328 61.43999862670897 L -73.62999725341797 61.282001495361314 L -73.72799682617188 61.071254730224595 L -73.74299621582031 61.039001464843736 L -73.88700103759766 60.81299972534178 L -74.05999755859375 60.609001159667955 L -74.25800323486328 60.42900085449217 L -74.47899627685547 60.27700042724608 L -74.5 60.26645660400389 L -74.71800231933594 60.157001495361314 L -74.97100067138672 60.06900024414061 L -75.23300170898438 60.01499938964842 L -75.5 59.9980010986328 L -75.76699829101562 60.01499938964842 L -75.7760009765625 60.01685333251952 L -76.02899932861328 60.06900024414061 L -76.28199768066406 60.157001495361314 L -76.52100372314453 60.27700042724608 L -76.74199676513672 60.42900085449217 L -76.94000244140625 60.609001159667955 L -77.11299896240234 60.81299972534178 L -77.25700378417969 61.039001464843736 L -77.37000274658203 61.282001495361314 L -77.41875457763672 61.43999862670897 L -77.4489974975586 61.537998199462876 L -77.49400329589844 61.80199813842772 L -77.50299835205078 62.06900024414061 L -77.47599792480469 62.335998535156236 L -77.41400146484375 62.596000671386705 L -77.31700134277344 62.846000671386705 L -77.18900299072266 63.08100128173827 L -77.02999877929688 63.29700088500975 L -76.84400177001953 63.48899841308592 L -76.63400268554688 63.65499877929686 L -76.40399932861328 63.79199981689452 L -76.15699768066406 63.89599990844725 L -75.89900207519531 63.966999053955064 L -75.7760009765625 63.98371124267577 L -75.63400268554688 64.00299835205077 L -75.36599731445312 64.00299835205077 L -75.10099792480469 63.966999053955064 L -74.84300231933594 63.89599990844725 L -74.59600067138672 63.79199981689452 L -74.5 63.7348175048828 L -74.36599731445312 63.65499877929686 L -74.15599822998047 63.48899841308592 L -73.97000122070312 63.29700088500975 L -73.81099700927734 63.08100128173827 L -73.72799682617188 62.928615570068345 L -73.68299865722656 62.846000671386705 L -73.58599853515625 62.596000671386705 L -73.52400207519531 62.335998535156236 L -73.4990005493164 62.07926940917967 M -73.4990005493164 56.57926940917967 L -73.49800109863281 56.56900024414061 L -73.4990005493164 56.53562545776366 L -73.50599670410156 56.30199813842772 L -73.5510025024414 56.037998199462876 L -73.62999725341797 55.782001495361314 L -73.72799682617188 55.571254730224595 L -73.74299621582031 55.539001464843736 L -73.88700103759766 55.31299972534178 L -74.05999755859375 55.109001159667955 L -74.25800323486328 54.92900085449217 L -74.47899627685547 54.77700042724608 L -74.5 54.76645660400389 L -74.71800231933594 54.657001495361314 L -74.97100067138672 54.56900024414061 L -75.23300170898438 54.51499938964842 L -75.5 54.4980010986328 L -75.76699829101562 54.51499938964842 L -75.7760009765625 54.51685333251952 L -76.02899932861328 54.56900024414061 L -76.28199768066406 54.657001495361314 L -76.52100372314453 54.77700042724608 L -76.74199676513672 54.92900085449217 L -76.94000244140625 55.109001159667955 L -77.11299896240234 55.31299972534178 L -77.25700378417969 55.539001464843736 L -77.37000274658203 55.782001495361314 L -77.4489974975586 56.037998199462876 L -77.49400329589844 56.30199813842772 L -77.50299835205078 56.56900024414061 L -77.47599792480469 56.835998535156236 L -77.41400146484375 57.096000671386705 L -77.31777954101562 57.34400177001952 L -77.31700134277344 57.346000671386705 L -77.18900299072266 57.58100128173827 L -77.02999877929688 57.79700088500975 L -76.84400177001953 57.98899841308592 L -76.63400268554688 58.15499877929686 L -76.40399932861328 58.29199981689452 L -76.15699768066406 58.39599990844725 L -75.89900207519531 58.466999053955064 L -75.7760009765625 58.48371124267577 L -75.63400268554688 58.50299835205077 L -75.36599731445312 58.50299835205077 L -75.10099792480469 58.466999053955064 L -74.84300231933594 58.39599990844725 L -74.59600067138672 58.29199981689452 L -74.5 58.2348175048828 L -74.36599731445312 58.15499877929686 L -74.15599822998047 57.98899841308592 L -73.97000122070312 57.79700088500975 L -73.81099700927734 57.58100128173827 L -73.72799682617188 57.428615570068345 L -73.68299865722656 57.346000671386705 L -73.68222045898438 57.34400177001952 L -73.58599853515625 57.096000671386705 L -73.52400207519531 56.835998535156236 L -73.4990005493164 56.57926940917967 M -74.16991424560547 52.499999999999986 L -74.15599822998047 52.48899841308592 L -73.97000122070312 52.29700088500975 L -73.81099700927734 52.08100128173827 L -73.72799682617188 51.928615570068345 L -73.68299865722656 51.846000671386705 L -73.58599853515625 51.596000671386705 L -73.52400207519531 51.335998535156236 L -73.49800109863281 51.06900024414061 L -73.50599670410156 50.80199813842772 L -73.5510025024414 50.537998199462876 L -73.62999725341797 50.282001495361314 L -73.72799682617188 50.071254730224595 L -73.74299621582031 50.039001464843736 L -73.88700103759766 49.81299972534178 L -74.05999755859375 49.609001159667955 L -74.25800323486328 49.42900085449217 L -74.47899627685547 49.27700042724608 L -74.71800231933594 49.157001495361314 L -74.73237609863281 49.15200042724608 L -74.97100067138672 49.06900024414061 L -75.23300170898438 49.01499938964842 L -75.5 48.9980010986328 L -75.76699829101562 49.01499938964842 L -76.02899932861328 49.06900024414061 L -76.26762390136719 49.15200042724608 L -76.28199768066406 49.157001495361314 L -76.52100372314453 49.27700042724608 L -76.74199676513672 49.42900085449217 L -76.94000244140625 49.609001159667955 L -77.11299896240234 49.81299972534178 L -77.25700378417969 50.039001464843736 L -77.37000274658203 50.282001495361314 L -77.4489974975586 50.537998199462876 L -77.49400329589844 50.80199813842772 L -77.50299835205078 51.06900024414061 L -77.48975372314453 51.20000076293944 L -77.47599792480469 51.335998535156236 L -77.41400146484375 51.596000671386705 L -77.31700134277344 51.846000671386705 L -77.18900299072266 52.08100128173827 L -77.02999877929688 52.29700088500975 L -76.84400177001953 52.48899841308592 L -76.83008575439453 52.499999999999986 L -76.63400268554688 52.65499877929686 L -76.40399932861328 52.79199981689452 L -76.15699768066406 52.89599990844725 L -75.89900207519531 52.966999053955064 L -75.7760009765625 52.98371124267577 L -75.63400268554688 53.00299835205077 L -75.36599731445312 53.00299835205077 L -75.10099792480469 52.966999053955064 L -74.84300231933594 52.89599990844725 L -74.59600067138672 52.79199981689452 L -74.5 52.7348175048828 L -74.36599731445312 52.65499877929686 L -74.16991424560547 52.499999999999986 M 0.716604471206665 73.72799682617186 L 0.7479000687599182 73.75199890136717 L 1.163314938545227 74.07057189941405 L 1.8095054626464844 74.3383331298828 L 2.503000020980835 74.43025970458983 L 3.1964945793151855 74.3383331298828 L 3.8426849842071533 74.07057189941405 L 4.2581000328063965 73.75199890136717 L 4.289395332336426 73.72799682617186 L 4.3978376388549805 73.64483642578124 L 4.505000114440918 73.50509643554686 L 4.823573589324951 73.08968353271483 L 5.09133243560791 72.44349670410155 L 5.182370185852051 71.74999999999999 L 5.09133243560791 71.05650329589842 L 4.823573589324951 70.41031646728514 L 4.505000114440918 69.99490356445311 L 4.3978376388549805 69.85516357421874 L 4.2581000328063965 69.7480010986328 L 3.8426849842071533 69.42942810058592 L 3.1964945793151855 69.16166687011717 L 2.503000020980835 69.0706329345703 L 1.8095054626464844 69.16166687011717 L 1.163314938545227 69.42942810058592 L 0.7479000687599182 69.7480010986328 L 0.6081622838973999 69.85516357421874 L 0.5009999871253967 69.99490356445311 L 0.18242624402046204 70.41031646728514 L -0.08533225953578949 71.05650329589842 L -0.17726267874240875 71.74999999999999 L -0.08533225953578949 72.44349670410155 L 0.18242624402046204 73.08968353271483 L 0.5009999871253967 73.50509643554686 L 0.6081622838973999 73.64483642578124 L 0.716604471206665 73.72799682617186 M 83.96660614013672 73.72799682617186 L 83.9979019165039 73.75199890136717 L 84.41331481933594 74.07057189941405 L 85.05950164794922 74.3383331298828 L 85.75299835205078 74.43025970458983 L 86.44649505615234 74.3383331298828 L 87.09268188476562 74.07057189941405 L 87.50810241699219 73.75199890136717 L 87.53939819335938 73.72799682617186 L 87.64783477783203 73.64483642578124 L 87.75499725341797 73.50509643554686 L 88.07357025146484 73.08968353271483 L 88.3413314819336 72.44349670410155 L 88.432373046875 71.74999999999999 L 88.3413314819336 71.05650329589842 L 88.07357025146484 70.41031646728514 L 87.75499725341797 69.99490356445311 L 87.64783477783203 69.85516357421874 L 87.50810241699219 69.7480010986328 L 87.09268188476562 69.42942810058592 L 86.44649505615234 69.16166687011717 L 85.75299835205078 69.0706329345703 L 85.05950164794922 69.16166687011717 L 84.41331481933594 69.42942810058592 L 83.9979019165039 69.7480010986328 L 83.85816192626953 69.85516357421874 L 83.7509994506836 69.99490356445311 L 83.43242645263672 70.41031646728514 L 83.16466522216797 71.05650329589842 L 83.07273864746094 71.74999999999999 L 83.16466522216797 72.44349670410155 L 83.43242645263672 73.08968353271483 L 83.7509994506836 73.50509643554686 L 83.85816192626953 73.64483642578124 L 83.96660614013672 73.72799682617186 M 2.255000114440918 -52.744899749755845 L 2.5735738277435303 -53.16031646728514 L 2.841332197189331 -53.80650711059569 L 2.932370185852051 -54.499999999999986 L 2.841332197189331 -55.19349288940428 L 2.5735738277435303 -55.83968353271483 L 2.255000114440918 -56.255100250244126 L 2.1478376388549805 -56.394836425781236 L 2.0080997943878174 -56.50199890136717 L 1.5926851034164429 -56.82057189941405 L 0.9464945197105408 -57.0883331298828 L 0.2529999911785126 -57.180263519287095 L -0.4404945373535156 -57.0883331298828 L -1.086685061454773 -56.82057189941405 L -1.502099871635437 -56.50199890136717 L -1.6418377161026 -56.394836425781236 L -1.7489999532699585 -56.255100250244126 L -2.0675737857818604 -55.83968353271483 L -2.335332155227661 -55.19349288940428 L -2.427262783050537 -54.499999999999986 L -2.335332155227661 -53.80650711059569 L -2.0675737857818604 -53.16031646728514 L -1.7489999532699585 -52.744899749755845 L -1.6418377161026 -52.605163574218736 L -1.502099871635437 -52.4980010986328 L -1.086685061454773 -52.17942810058592 L -0.4404945373535156 -51.91166687011717 L 0.2529999911785126 -51.82062911987303 L 0.9464945197105408 -51.91166687011717 L 1.5926851034164429 -52.17942810058592 L 2.0080997943878174 -52.4980010986328 L 2.1478376388549805 -52.605163574218736 L 2.255000114440918 -52.744899749755845 M 74.75499725341797 -52.744899749755845 L 75.07357025146484 -53.16031646728514 L 75.3413314819336 -53.80650711059569 L 75.432373046875 -54.499999999999986 L 75.3413314819336 -55.19349288940428 L 75.07357025146484 -55.83968353271483 L 74.75499725341797 -56.255100250244126 L 74.64783477783203 -56.394836425781236 L 74.50810241699219 -56.50199890136717 L 74.09268188476562 -56.82057189941405 L 73.44649505615234 -57.0883331298828 L 72.75299835205078 -57.180263519287095 L 72.05950164794922 -57.0883331298828 L 71.41331481933594 -56.82057189941405 L 70.9979019165039 -56.50199890136717 L 70.85816192626953 -56.394836425781236 L 70.7509994506836 -56.255100250244126 L 70.43242645263672 -55.83968353271483 L 70.16466522216797 -55.19349288940428 L 70.07273864746094 -54.499999999999986 L 70.16466522216797 -53.80650711059569 L 70.43242645263672 -53.16031646728514 L 70.7509994506836 -52.744899749755845 L 70.85816192626953 -52.605163574218736 L 70.9979019165039 -52.4980010986328 L 71.41331481933594 -52.17942810058592 L 72.05950164794922 -51.91166687011717 L 72.75299835205078 -51.82062911987303 L 73.44649505615234 -51.91166687011717 L 74.09268188476562 -52.17942810058592 L 74.50810241699219 -52.4980010986328 L 74.64783477783203 -52.605163574218736 L 74.75499725341797 -52.744899749755845 M -69.49500274658203 -52.744899749755845 L -69.17642974853516 -53.16031646728514 L -68.9086685180664 -53.80650711059569 L -68.817626953125 -54.499999999999986 L -68.9086685180664 -55.19349288940428 L -69.17642974853516 -55.83968353271483 L -69.49500274658203 -56.255100250244126 L -69.60216522216797 -56.394836425781236 L -69.63200378417969 -56.41772079467772 L -69.74189758300781 -56.50199890136717 L -70.15731811523438 -56.82057189941405 L -70.80350494384766 -57.0883331298828 L -71.49700164794922 -57.180263519287095 L -72.19049835205078 -57.0883331298828 L -72.83668518066406 -56.82057189941405 L -73.2520980834961 -56.50199890136717 L -73.39183807373047 -56.394836425781236 L -73.4990005493164 -56.255100250244126 L -73.81757354736328 -55.83968353271483 L -74.08533477783203 -55.19349288940428 L -74.17726135253906 -54.499999999999986 L -74.08533477783203 -53.80650711059569 L -73.81757354736328 -53.16031646728514 L -73.4990005493164 -52.744899749755845 L -73.39183807373047 -52.605163574218736 L -73.2520980834961 -52.4980010986328 L -72.83668518066406 -52.17942810058592 L -72.19049835205078 -51.91166687011717 L -71.49700164794922 -51.82062911987303 L -70.80350494384766 -51.91166687011717 L -70.15731811523438 -52.17942810058592 L -69.74189758300781 -52.4980010986328 L -69.60216522216797 -52.605163574218736 L -69.49500274658203 -52.744899749755845 z" fill="none" stroke="rgb(255,0,0)" stroke-width="0.001mm" />
</svg>