<?xml version="1.0" standalone="no"?>
<!DOCTYPE svg PUBLIC "-//W3C//DTD SVG 1.1//EN"
  "http://www.w3.org/Graphics/SVG/1.1/DTD/svg11.dtd">
<svg width="194.49700164794922mm" height="140.99924850463864mm" viewBox="-96.5 -62.49924850463866 194.49700164794922 140.99924850463864" xmlns="http://www.w3.org/2000/svg" version="1.1">
	<title>svgOutput</title>
	<desc>made with tinkercad</desc>
<path d="M -95.5 76.92076873779295 L -95.5 73.99999999999999 L -95.5 50.499999999999986 L -95.5 48.999999999999986 L -95.4992446899414 48.999999999999986 L -95.4992446899414 -32.99999999999999 L -95.5 -32.99999999999999 L -95.5 -34.49999999999999 L -95.5 -59.999999999999986 L -95.5 -60.92077255249022 L -94.92152404785156 -61.49924850463866 L -92 -61.49924850463866 L -74.50299835205078 -61.49924850463866 L -72.8101577758789 -61.49924850463866 L -71.09840393066406 -61.49924850463866 L -69.53350067138672 -61.49924850463866 L -67.89276885986328 -61.49924850463866 L -67 -61.49924850463866 L 77.5 -61.49924850463866 L 92.5 -61.49924850463866 L 92.5 -59.499999999999986 L 92.5 -57.999999999999986 L 92.49700164794922 -57.999999999999986 L 92.49700164794922 -56.94187164306639 L 92.49700164794922 -55.054653167724595 L 92.49700164794922 -53.34883880615233 L 92.49700164794922 -53.2480010986328 L 92.49700164794922 -52.2480010986328 L 92.49700164794922 -34.49999999999999 L 92.49700164794922 -11.251999855041502 L 82.74700164794922 -11.251999855041502 L 82.74700164794922 8.503000259399412 L 87.49700164794922 8.503000259399412 L 87.49700164794922 28.003000259399407 L 92.49700164794922 28.003000259399407 L 96.99700164794922 28.003000259399407 L 96.99700164794922 46.24700164794921 L 92.49700164794922 46.24700164794921 L 87.49700164794922 46.24700164794921 L 87.49700164794922 50.499999999999986 L 87.49700164794922 73.99999999999999 L 87.5 73.99999999999999 L 87.5 74.00299835205077 L 87.5 77.49924468994139 L 69.74800109863281 77.49924468994139 L -2.753000020980835 77.49924468994139 L -67 77.49924468994139 L -67 77.49999999999999 L -69.5 77.49999999999999 L -74.50299835205078 77.49999999999999 L -94 77.49999999999999 L -94.92076873779297 77.49999999999999 L -95.5 76.92076873779295 M -72.22132110595703 73.69217681884764 L -71.5 73.7877960205078 L -70.77867889404297 73.69217681884764 L -70.1065673828125 73.41367340087889 L -69.56974792480469 73.00199890136717 L -69.52914428710938 72.97085571289061 L -69.5 72.93286132812499 L -69.0863265991211 72.39343261718749 L -68.80782318115234 71.72132110595702 L -68.713134765625 70.99999999999999 L -68.80782318115234 70.27867889404295 L -69.0863265991211 69.60656738281249 L -69.5 69.06713867187499 L -69.52914428710938 69.02914428710936 L -69.56974792480469 68.9980010986328 L -70.1065673828125 68.58632659912108 L -70.77867889404297 68.30782318115233 L -71.5 68.21313476562499 L -72.22132110595703 68.30782318115233 L -72.8934326171875 68.58632659912108 L -73.43025207519531 68.9980010986328 L -73.47085571289062 69.02914428710936 L -73.50199890136719 69.06974792480467 L -73.9136734008789 69.60656738281249 L -74.19217681884766 70.27867889404295 L -74.28779602050781 70.99999999999999 L -74.19217681884766 71.72132110595702 L -73.9136734008789 72.39343261718749 L -73.50199890136719 72.9302520751953 L -73.47085571289062 72.97085571289061 L -73.43025207519531 73.00199890136717 L -72.8934326171875 73.41367340087889 L -72.22132110595703 73.69217681884764 M 72.02867889404297 73.69217681884764 L 72.75 73.7877960205078 L 73.47132110595703 73.69217681884764 L 74.1434326171875 73.41367340087889 L 74.68025207519531 73.00199890136717 L 74.72085571289062 72.97085571289061 L 74.75199890136719 72.9302520751953 L 75.1636734008789 72.39343261718749 L 75.44217681884766 71.72132110595702 L 75.53779602050781 70.99999999999999 L 75.44217681884766 70.27867889404295 L 75.1636734008789 69.60656738281249 L 74.75199890136719 69.06974792480467 L 74.72085571289062 69.02914428710936 L 74.68025207519531 68.9980010986328 L 74.1434326171875 68.58632659912108 L 73.47132110595703 68.30782318115233 L 72.75 68.21313476562499 L 72.02867889404297 68.30782318115233 L 71.3565673828125 68.58632659912108 L 70.81974792480469 68.9980010986328 L 70.77914428710938 69.02914428710936 L 70.74800109863281 69.06974792480467 L 70.3363265991211 69.60656738281249 L 70.05782318115234 70.27867889404295 L 69.963134765625 70.99999999999999 L 70.05782318115234 71.72132110595702 L 70.3363265991211 72.39343261718749 L 70.74800109863281 72.9302520751953 L 70.77914428710938 72.97085571289061 L 70.81974792480469 73.00199890136717 L 71.3565673828125 73.41367340087889 L 72.02867889404297 73.69217681884764 M -0.47131776809692383 73.69217681884764 L 0.25 73.7877960205078 L 0.9713177680969238 73.69217681884764 L 1.643433690071106 73.41367340087889 L 2.1802523136138916 73.00199890136717 L 2.2208592891693115 72.97085571289061 L 2.252000093460083 72.9302520751953 L 2.6636760234832764 72.39343261718749 L 2.9421770572662354 71.72132110595702 L 3.0377957820892334 70.99999999999999 L 2.9421770572662354 70.27867889404295 L 2.6636760234832764 69.60656738281249 L 2.252000093460083 69.06974792480467 L 2.2208592891693115 69.02914428710936 L 2.1802523136138916 68.9980010986328 L 1.643433690071106 68.58632659912108 L 0.9713177680969238 68.30782318115233 L 0.25 68.21313476562499 L -0.47131776809692383 68.30782318115233 L -1.143433690071106 68.58632659912108 L -1.680252194404602 68.9980010986328 L -1.7208592891693115 69.02914428710936 L -1.7519999742507935 69.06974792480467 L -2.1636760234832764 69.60656738281249 L -2.4421770572662354 70.27867889404295 L -2.5377957820892334 70.99999999999999 L -2.4421770572662354 71.72132110595702 L -2.1636760234832764 72.39343261718749 L -1.7519999742507935 72.9302520751953 L -1.7208592891693115 72.97085571289061 L -1.680252194404602 73.00199890136717 L -1.143433690071106 73.41367340087889 L -0.47131776809692383 73.69217681884764 M 70.5719985961914 -37.64400100708007 L 71.5 -37.498001098632805 L 72.4280014038086 -37.64400100708007 L 73.26499938964844 -38.070999145507805 L 73.92900085449219 -38.735000610351555 L 74.35600280761719 -39.5719985961914 L 74.50299835205078 -40.49999999999999 L 74.43013000488281 -40.95999908447265 L 74.35600280761719 -41.42800140380859 L 73.92900085449219 -42.26499938964843 L 73.26499938964844 -42.92900085449218 L 72.4280014038086 -43.355998992919915 L 71.5 -43.502998352050774 L 70.5719985961914 -43.355998992919915 L 69.73500061035156 -42.92900085449218 L 69.07099914550781 -42.26499938964843 L 68.64399719238281 -41.42800140380859 L 68.57037353515625 -40.95999908447265 L 68.49800109863281 -40.49999999999999 L 68.64399719238281 -39.5719985961914 L 69.07099914550781 -38.735000610351555 L 69.73500061035156 -38.070999145507805 L 70.5719985961914 -37.64400100708007 M 1.7786822319030762 -52.55782318115233 L 2.5 -52.46313095092772 L 3.221317768096924 -52.55782318115233 L 3.8934338092803955 -52.836322784423814 L 4.4302520751953125 -53.2480010986328 L 4.470859050750732 -53.279140472412095 L 4.501999855041504 -53.31974792480467 L 4.913675785064697 -53.856567382812486 L 5.192176818847656 -54.52868270874022 L 5.287795543670654 -55.249999999999986 L 5.192176818847656 -55.97131729125975 L 4.913675785064697 -56.643432617187486 L 4.501999855041504 -57.1802520751953 L 4.470859050750732 -57.220859527587876 L 4.4302520751953125 -57.25199890136717 L 3.8934338092803955 -57.66367721557616 L 3.221317768096924 -57.94217681884764 L 2.5 -58.0377960205078 L 1.7786822319030762 -57.94217681884764 L 1.106566309928894 -57.66367721557616 L 0.569747805595398 -57.25199890136717 L 0.5291407704353333 -57.220859527587876 L 0.49799999594688416 -57.1802520751953 L 0.0863240510225296 -56.643432617187486 L -0.19217701256275177 -55.97131729125975 L -0.2877957224845886 -55.249999999999986 L -0.19217701256275177 -54.52868270874022 L 0.0863240510225296 -53.856567382812486 L 0.49799999594688416 -53.31974792480467 L 0.5291407704353333 -53.279140472412095 L 0.569747805595398 -53.2480010986328 L 1.106566309928894 -52.836322784423814 L 1.7786822319030762 -52.55782318115233 M 85.02867889404297 -52.55782318115233 L 85.75 -52.46313095092772 L 86.47132110595703 -52.55782318115233 L 87.1434326171875 -52.836322784423814 L 87.68025207519531 -53.2480010986328 L 87.72085571289062 -53.279140472412095 L 87.75199890136719 -53.31974792480467 L 88.1636734008789 -53.856567382812486 L 88.44217681884766 -54.52868270874022 L 88.53779602050781 -55.249999999999986 L 88.44217681884766 -55.97131729125975 L 88.1636734008789 -56.643432617187486 L 87.75199890136719 -57.1802520751953 L 87.72085571289062 -57.220859527587876 L 87.68025207519531 -57.25199890136717 L 87.1434326171875 -57.66367721557616 L 86.47132110595703 -57.94217681884764 L 85.75 -58.0377960205078 L 85.02867889404297 -57.94217681884764 L 84.3565673828125 -57.66367721557616 L 83.81974792480469 -57.25199890136717 L 83.77914428710938 -57.220859527587876 L 83.74800109863281 -57.1802520751953 L 83.3363265991211 -56.643432617187486 L 83.05782318115234 -55.97131729125975 L 82.963134765625 -55.249999999999986 L 83.05782318115234 -54.52868270874022 L 83.3363265991211 -53.856567382812486 L 83.74800109863281 -53.31974792480467 L 83.77914428710938 -53.279140472412095 L 83.81974792480469 -53.2480010986328 L 84.3565673828125 -52.836322784423814 L 85.02867889404297 -52.55782318115233 M -72.22132110595703 -52.55782318115233 L -71.5 -52.46313095092772 L -70.77867889404297 -52.55782318115233 L -70.1065673828125 -52.836322784423814 L -69.56974792480469 -53.2480010986328 L -69.52914428710938 -53.279140472412095 L -69.49800109863281 -53.31974792480467 L -69.0863265991211 -53.856567382812486 L -68.80782318115234 -54.52868270874022 L -68.713134765625 -55.249999999999986 L -68.80782318115234 -55.97131729125975 L -69.0863265991211 -56.643432617187486 L -69.49800109863281 -57.1802520751953 L -69.52914428710938 -57.220859527587876 L -69.56974792480469 -57.25199890136717 L -70.1065673828125 -57.66367721557616 L -70.77867889404297 -57.94217681884764 L -71.21488189697266 -57.999999999999986 L -71.5 -58.0377960205078 L -71.78511810302734 -57.999999999999986 L -72.22132110595703 -57.94217681884764 L -72.8934326171875 -57.66367721557616 L -73.43025207519531 -57.25199890136717 L -73.47085571289062 -57.220859527587876 L -73.50199890136719 -57.1802520751953 L -73.9136734008789 -56.643432617187486 L -74.19217681884766 -55.97131729125975 L -74.28779602050781 -55.249999999999986 L -74.19217681884766 -54.52868270874022 L -73.9136734008789 -53.856567382812486 L -73.50199890136719 -53.31974792480467 L -73.47085571289062 -53.279140472412095 L -73.43025207519531 -53.2480010986328 L -72.8934326171875 -52.836322784423814 L -72.22132110595703 -52.55782318115233 M -73.4280014038086 -37.64400100708007 L -72.5 -37.498001098632805 L -71.5719985961914 -37.64400100708007 L -70.73500061035156 -38.070999145507805 L -70.07099914550781 -38.735000610351555 L -69.64399719238281 -39.5719985961914 L -69.49800109863281 -40.49999999999999 L -69.57037353515625 -40.95999908447265 L -69.64399719238281 -41.42800140380859 L -70.07099914550781 -42.26499938964843 L -70.73500061035156 -42.92900085449218 L -71.5719985961914 -43.355998992919915 L -72.5 -43.502998352050774 L -73.4280014038086 -43.355998992919915 L -74.26499938964844 -42.92900085449218 L -74.50299835205078 -42.69100189208984 L -74.92900085449219 -42.26499938964843 L -75.35600280761719 -41.42800140380859 L -75.43013000488281 -40.95999908447265 L -75.50299835205078 -40.49999999999999 L -75.35600280761719 -39.5719985961914 L -74.92900085449219 -38.735000610351555 L -74.50299835205078 -38.30899810791015 L -74.26499938964844 -38.070999145507805 L -73.4280014038086 -37.64400100708007 z" fill="none" stroke="rgb(255,0,0)" stroke-width="0.001mm" />
</svg>